<svg xmlns="http://www.w3.org/2000/svg" width="900" height="270" viewBox="0 0 900 270" role="img" aria-labelledby="title desc">
  <title id="title">papernote 累计访问趋势</title>
  <desc id="desc">自 2026-08-30 起累计 19 次访问。</desc>
  <rect width="900" height="270" rx="12" fill="#ffffff" stroke="#d0d7de"/>
  <text x="62" y="31" fill="#24292f" font-family="-apple-system,BlinkMacSystemFont,Segoe UI,sans-serif" font-size="18" font-weight="600">papernote · 累计访问趋势</text>
  <text x="62" y="55" fill="#57606a" font-family="-apple-system,BlinkMacSystemFont,Segoe UI,sans-serif" font-size="12">自 2026-08-30 起累计 19 次访问 · 更新于 2026-10-06 07:34 UTC</text>
  <g font-family="-apple-system,BlinkMacSystemFont,Segoe UI,sans-serif"><line x1="62" y1="82.0" x2="870" y2="82.0" stroke="#d8dee4" stroke-width="1"/><text x="50" y="86.0" text-anchor="end" fill="#57606a" font-size="11">19</text><line x1="62" y1="151.0" x2="870" y2="151.0" stroke="#d8dee4" stroke-width="1"/><text x="50" y="155.0" text-anchor="end" fill="#57606a" font-size="11">10</text><line x1="62" y1="220.0" x2="870" y2="220.0" stroke="#d8dee4" stroke-width="1"/><text x="50" y="224.0" text-anchor="end" fill="#57606a" font-size="11">0</text></g>
  <polygon points="62,220 62.0,220.0 83.8,190.9 105.7,183.7 127.5,183.7 149.4,176.4 171.2,161.9 193.0,147.4 214.9,147.4 236.7,125.6 258.5,125.6 280.4,125.6 302.2,125.6 324.1,125.6 345.9,125.6 367.7,125.6 389.6,118.3 411.4,118.3 433.2,118.3 455.1,118.3 476.9,118.3 498.8,118.3 520.6,118.3 542.4,111.1 564.3,111.1 586.1,111.1 607.9,103.8 629.8,96.5 651.6,96.5 673.5,96.5 695.3,96.5 717.1,89.3 739.0,82.0 760.8,82.0 782.6,82.0 804.5,82.0 826.3,82.0 848.2,82.0 870.0,82.0 870,220" fill="#2da44e" fill-opacity="0.12"/>
  <polyline points="62.0,220.0 83.8,190.9 105.7,183.7 127.5,183.7 149.4,176.4 171.2,161.9 193.0,147.4 214.9,147.4 236.7,125.6 258.5,125.6 280.4,125.6 302.2,125.6 324.1,125.6 345.9,125.6 367.7,125.6 389.6,118.3 411.4,118.3 433.2,118.3 455.1,118.3 476.9,118.3 498.8,118.3 520.6,118.3 542.4,111.1 564.3,111.1 586.1,111.1 607.9,103.8 629.8,96.5 651.6,96.5 673.5,96.5 695.3,96.5 717.1,89.3 739.0,82.0 760.8,82.0 782.6,82.0 804.5,82.0 826.3,82.0 848.2,82.0 870.0,82.0" fill="none" stroke="#1a7f37" stroke-width="3" stroke-linejoin="round" stroke-linecap="round"/>
  <text x="62" y="248" fill="#57606a" font-family="-apple-system,BlinkMacSystemFont,Segoe UI,sans-serif" font-size="11">08-30</text>
  <text x="476.9" y="248" text-anchor="middle" fill="#57606a" font-family="-apple-system,BlinkMacSystemFont,Segoe UI,sans-serif" font-size="11">09-18</text>
  <text x="870" y="248" text-anchor="end" fill="#57606a" font-family="-apple-system,BlinkMacSystemFont,Segoe UI,sans-serif" font-size="11">10-06</text>
</svg>
